# xmcd CD database file
#
# Track frame offsets:
#	150
#	13181
#	33022
#	49433
#	64961
#	80572
#	94713
#	115044
#	128563
#	140386
#	150237
#	163931
#	182831
#
# Disc length: 2472 seconds
#
# Revision: 0
# Processed by: cddbd v1.5.2PL0 Copyright (c) Steve Scherf et al.
# Submitted via: CDex 2.18
#
DISCID=a509a60d
DTITLE=Pat Thomas - His Father's Son
DYEAR=2008
DGENRE=Blues
TTITLE0=Dance With The Red Dress On
TTITLE1=61 Highway
TTITLE2=Big Fat Mama
TTITLE3=Standing At The Crossroads
TTITLE4=Mule Plow Line
TTITLE5=Sugar Mama
TTITLE6=Dimples
TTITLE7=Cairo Blues
TTITLE8=Rainbow At Midnight
TTITLE9=Leland's Burning Down
TTITLE10=The Woman i Love
TTITLE11=Beefsteak Blues
TTITLE12=bonus track
EXTD=YEAR: 2008
EXTT0=
EXTT1=
EXTT2=
EXTT3=
EXTT4=
EXTT5=
EXTT6=
EXTT7=
EXTT8=
EXTT9=
EXTT10=
EXTT11=
EXTT12=
PLAYORDER=
